<?xml version="1.0" encoding="utf-8"?>
<!-- Generator: Adobe Illustrator 16.0.0, SVG Export Plug-In . SVG Version: 6.00 Build 0)  -->
<!DOCTYPE svg PUBLIC "-//W3C//DTD SVG 1.1//EN" "http://www.w3.org/Graphics/SVG/1.1/DTD/svg11.dtd">
<svg version="1.1" id="Layer_1" xmlns="http://www.w3.org/2000/svg" xmlns:xlink="http://www.w3.org/1999/xlink" x="0px" y="0px"
	 width="697.656px" height="299.097px" viewBox="35.727 240.786 697.656 299.097"
	 enable-background="new 35.727 240.786 697.656 299.097" xml:space="preserve">
<g>
	<path fill="#92D13D" d="M43.681,256.032l7.339-7.339c11.246-11.127,29.594-10.417,39.893,1.539l101.566,118.375
		c8.878,10.298,8.76,25.568-0.237,35.749L91.031,519.062c-10.417,11.719-28.529,12.311-39.656,1.184l-7.339-7.34
		c-9.943-9.943-10.654-25.806-1.657-36.696l60.608-72.682c8.287-9.944,8.405-24.268,0.355-34.448l-61.555-76.944
		C33.027,281.483,33.855,265.857,43.681,256.032z"/>
	<path fill="#49691F" d="M102.868,415.177L42.26,487.859c-8.996,10.771-8.286,26.753,1.657,36.696l7.339,7.339
		c11.127,11.128,29.239,10.535,39.656-1.184l21.899-24.858c8.286-16.336,12.903-34.803,12.903-54.335
		c0-24.148-7.103-46.521-19.177-65.343C111.036,395.408,109.852,406.891,102.868,415.177z"/>
	<text transform="matrix(1 0 0 1 226.5039 423.1855)" fill="#49691F" font-family="'Arial-Black'" font-size="140.2934">pfview</text>
</g>
</svg>
