<?xml version="1.0" encoding="utf-8"?>
<!-- Generator: Adobe Illustrator 18.1.1, SVG Export Plug-In . SVG Version: 6.00 Build 0)  -->
<svg version="1.1" id="Layer_1" xmlns="http://www.w3.org/2000/svg" xmlns:xlink="http://www.w3.org/1999/xlink" x="0px" y="0px"
	 viewBox="69 476.9 715 317" enable-background="new 69 476.9 715 317" xml:space="preserve">
<g>
	<path fill="#92D13D" d="M86.7,503.9l7.3-7.3c11.2-11.1,29.6-10.4,39.9,1.5l101.6,118.4c8.9,10.3,8.8,25.6-0.2,35.7L134,767
		c-10.4,11.7-28.5,12.3-39.7,1.2l-7.3-7.3c-9.9-9.9-10.7-25.8-1.7-36.7l60.6-72.7c8.3-9.9,8.4-24.3,0.4-34.4L84.8,540
		C76,529.4,76.9,513.8,86.7,503.9z"/>
	<path fill="#49691F" d="M145.9,653.1l-60.6,72.7c-9,10.8-8.3,26.8,1.7,36.7l7.3,7.3c11.1,11.1,29.2,10.5,39.7-1.2l21.9-24.9
		c8.3-16.3,12.9-34.8,12.9-54.3c0-24.1-7.1-46.5-19.2-65.3C154,633.3,152.9,644.8,145.9,653.1z"/>
	<text transform="matrix(1 0 0 1 269.5039 671.0885)" fill="#49691F" font-family="'Arial-Black'" font-size="140.2934">pfview</text>
</g>
</svg>
